HIERARCHY
ROOT SpineBase
{
  OFFSET 0.000000 0.000000 0.000000
  CHANNELS 6 Xposition Yposition Zposition Zrotation Xrotation Yrotation
  JOINT SpineMid
  {
    OFFSET 0.000000 29.318022 0.000000
    CHANNELS 3 Zrotation Xrotation Yrotation
    JOINT SpineShoulder
    {
      OFFSET -0.166324 21.770914 -0.618470
      CHANNELS 3 Zrotation Xrotation Yrotation
      JOINT Neck
      {
        OFFSET -0.110981 7.220257 -0.500788
        CHANNELS 3 Zrotation Xrotation Yrotation
        JOINT Head
        {
          OFFSET 1.114359 9.146121 -1.687007
          CHANNELS 3 Zrotation Xrotation Yrotation
          End Site
          {
            OFFSET 0 0 0
          }
        }
      }
      JOINT ShoulderLeft
      {
        OFFSET -16.123484 -3.484942 1.101756
        CHANNELS 3 Zrotation Xrotation Yrotation
        JOINT ElbowLeft
        {
          OFFSET -5.088805 -21.147055 5.350673
          CHANNELS 3 Zrotation Xrotation Yrotation
          JOINT WristLeft
          {
            OFFSET 5.587805 -18.643349 0.827967
            CHANNELS 3 Zrotation Xrotation Yrotation
            JOINT HandLeft
            {
              OFFSET 0.841770 -5.582816 2.655773
              CHANNELS 3 Zrotation Xrotation Yrotation
              JOINT HandTipLeft
              {
                OFFSET -0.579655 0.056114 -0.204945
                CHANNELS 3 Zrotation Xrotation Yrotation
                End Site
                {
                  OFFSET 0 0 0
                }
              }
              JOINT ThumbLeft
              {
                OFFSET -0.324883 0.735793 -2.110370
                CHANNELS 3 Zrotation Xrotation Yrotation
                End Site
                {
                  OFFSET 0 0 0
                }
              }
            }
          }
        }
      }
      JOINT ShoulderRight
      {
        OFFSET 14.832715 -3.549285 3.552839
        CHANNELS 3 Zrotation Xrotation Yrotation
        JOINT ElbowRight
        {
          OFFSET 4.623766 -21.692990 6.855529
          CHANNELS 3 Zrotation Xrotation Yrotation
          JOINT WristRight
          {
            OFFSET -0.992023 -18.695566 -6.962879
            CHANNELS 3 Zrotation Xrotation Yrotation
            JOINT HandRight
            {
              OFFSET 0.413749 -4.139908 -1.863427
              CHANNELS 3 Zrotation Xrotation Yrotation
              JOINT HandTipRight
              {
                OFFSET 0.073052 -3.446981 -1.213422
                CHANNELS 3 Zrotation Xrotation Yrotation
                End Site
                {
                  OFFSET 0 0 0
                }
              }
              JOINT ThumbRight
              {
                OFFSET -0.665696 2.728784 -1.757117
                CHANNELS 3 Zrotation Xrotation Yrotation
                End Site
                {
                  OFFSET 0 0 0
                }
              }
            }
          }
        }
      }
    }
  }
  JOINT HipLeft
  {
    OFFSET -7.300134 1.312235 -3.551344
    CHANNELS 3 Zrotation Xrotation Yrotation
    JOINT KneeLeft
    {
      OFFSET -6.263179 -29.788359 -1.276459
      CHANNELS 3 Zrotation Xrotation Yrotation
      JOINT AnkleLeft
      {
        OFFSET -2.220212 -27.565513 4.423297
        CHANNELS 3 Zrotation Xrotation Yrotation
        JOINT FootLeft
        {
          OFFSET 0.539921 -2.746285 -12.693054
          CHANNELS 3 Zrotation Xrotation Yrotation
          End Site
          {
            OFFSET 0 0 0
          }
        }
      }
    }
  }
  JOINT HipRight
  {
    OFFSET 6.075041 1.014259 -2.907006
    CHANNELS 3 Zrotation Xrotation Yrotation
    JOINT KneeRight
    {
      OFFSET 7.399234 -28.652490 2.561131
      CHANNELS 3 Zrotation Xrotation Yrotation
      JOINT AnkleRight
      {
        OFFSET 4.478800 -26.851751 7.773537
        CHANNELS 3 Zrotation Xrotation Yrotation
        JOINT FootRight
        {
          OFFSET 0.293843 -2.797923 -12.674133
          CHANNELS 3 Zrotation Xrotation Yrotation
          End Site
          {
            OFFSET 0 0 0
          }
        }
      }
    }
  }
}
MOTION
Frames: 14
Frame Time: 0.033333
68.244685 59.867643 382.829444 0.312230 1.723236 -3.674242 0.066363 -0.249535 3.692671 -0.222837 -0.009773 0.007771 -5.234940 -2.733842 -0.997291 0.000000 0.000000 0.000000 -1.740589 -2.238416 -0.301276 1.514463 -2.460567 -0.772752 -5.744148 17.864522 1.716355 41.547351 -5.475270 53.681850 0.000000 0.000000 0.000000 0.000000 0.000000 0.000000 -3.249237 -5.367547 -2.023434 2.586288 5.213522 1.797449 24.272710 8.788923 -10.912693 -23.294051 -14.934320 6.694961 0.000000 0.000000 0.000000 0.000000 0.000000 0.000000 0.648500 -1.762002 3.672306 0.196511 -0.522459 0.240311 -1.040261 0.603219 -0.210063 0.000000 0.000000 0.000000 1.791979 -2.147915 3.770882 -1.961320 0.537058 -0.027581 0.612615 -8.296153 -5.358055 0.000000 0.000000 0.000000
68.289183 59.831733 382.795580 0.157427 1.856248 -3.777071 -0.129443 -0.215550 3.785246 -0.215400 0.022133 -0.004331 -5.095423 -3.366572 -1.003620 0.000000 0.000000 0.000000 -1.887923 -2.642978 -0.379496 1.998123 -1.549131 -0.488935 -5.214707 15.332924 1.142067 39.898307 -12.491535 32.132576 0.000000 0.000000 0.000000 0.000000 0.000000 0.000000 -2.729379 -6.134561 -2.070540 2.354170 5.853903 1.861223 16.566286 26.638180 -7.329412 -15.996877 -24.549619 -0.271179 0.000000 0.000000 0.000000 0.000000 0.000000 0.000000 -0.034846 -1.862583 3.773954 1.252667 -0.649065 0.260383 -1.539524 -2.276580 0.548737 0.000000 0.000000 0.000000 1.807180 -2.335381 3.849379 -1.805319 0.594109 0.001408 0.193251 -0.477722 -0.942369 0.000000 0.000000 0.000000
68.383493 59.800407 382.748823 0.017832 2.022887 -3.695169 -0.326563 -0.144331 3.694045 -0.216143 0.046345 -0.015974 -6.426831 -3.312609 -1.407889 0.000000 0.000000 0.000000 0.968249 -5.338393 0.963545 -2.194565 14.410096 2.619832 -9.109902 5.167938 -7.043169 -15.894861 -2.976004 -16.056237 0.000000 0.000000 0.000000 0.000000 0.000000 0.000000 -2.208552 -6.928467 -2.105689 2.215025 6.142148 1.890130 0.624938 43.853977 3.729768 -5.133734 -33.134884 -5.334197 0.000000 0.000000 0.000000 0.000000 0.000000 0.000000 0.112619 -2.019830 3.696839 1.128398 -0.887993 0.261224 -0.780476 4.690662 -0.922995 0.000000 0.000000 0.000000 1.708913 -2.494361 3.750205 -1.560978 0.576884 0.017366 -0.074180 2.093789 0.514721 0.000000 0.000000 0.000000
68.484426 59.751403 382.700505 0.107571 2.074241 -3.518608 -0.421799 -0.207363 3.513413 -0.463041 0.155989 -0.035066 -9.959758 -1.428583 -2.328821 0.000000 0.000000 0.000000 0.637303 -4.769644 0.640194 -7.261321 27.495121 8.812904 -10.796486 -8.862251 -17.328115 16.699765 -12.605009 -3.304347 0.000000 0.000000 0.000000 0.000000 0.000000 0.000000 -2.112776 -7.087103 -2.166022 2.368599 6.204390 1.944495 -6.215882 48.169004 9.179075 -1.515475 -28.216343 -5.706964 0.000000 0.000000 0.000000 0.000000 0.000000 0.000000 0.338701 -0.860490 3.257112 0.356328 -2.619801 0.521553 0.074096 6.419109 -2.465810 0.000000 0.000000 0.000000 1.380248 -2.407882 3.582657 -1.336170 0.414569 -0.007572 -0.096702 2.636218 0.649530 0.000000 0.000000 0.000000
68.639067 59.716868 382.542197 -0.489782 2.408524 -2.887107 -0.831100 0.076002 2.862988 -0.344164 0.167187 -0.060965 -11.504787 -0.725105 -2.928779 0.000000 0.000000 0.000000 -3.325397 -1.526046 -1.601849 -3.235682 48.116182 21.236683 -50.487225 -68.077034 -60.620140 -10.152775 29.374331 -1.021323 0.000000 0.000000 0.000000 0.000000 0.000000 0.000000 -1.420325 -7.773988 -2.207316 2.540423 6.253642 2.003796 -4.340069 47.076567 7.657183 -3.576211 -14.560937 -4.953770 0.000000 0.000000 0.000000 0.000000 0.000000 0.000000 0.963165 -0.341297 2.474396 -0.211450 -4.012073 0.642375 1.119034 7.917110 -4.189202 0.000000 0.000000 0.000000 1.656391 -2.665994 2.960662 -1.028430 0.338431 -0.001499 0.218163 0.708468 -0.890064 0.000000 0.000000 0.000000
68.781067 59.664085 382.355019 -1.613259 2.958163 -1.927371 -1.333904 0.545412 1.893619 0.010906 0.102684 -0.087487 -12.916759 0.119039 -3.613237 0.000000 0.000000 0.000000 -11.615060 5.912092 -5.432608 47.066090 78.899076 13.691968 154.919019 -16.433372 -158.111564 -116.907492 61.042062 86.415144 0.000000 0.000000 0.000000 0.000000 0.000000 0.000000 -0.348457 -8.750484 -2.218857 2.722132 6.281277 2.063013 5.789234 39.290779 -0.194300 -12.130118 5.545864 -2.146110 0.000000 0.000000 0.000000 0.000000 0.000000 0.000000 2.210504 -0.085689 1.411832 -0.764590 -5.313175 0.751119 2.030422 8.878768 -5.816261 0.000000 0.000000 0.000000 2.582587 -3.206766 2.048373 -0.856024 0.336216 0.012847 0.319325 0.834636 -1.317254 0.000000 0.000000 0.000000
68.962423 59.682432 382.062498 -2.762787 3.701534 -1.156853 -1.495148 0.757436 1.140961 0.100515 0.121073 -0.122374 -15.868778 2.298424 -4.556296 0.000000 0.000000 0.000000 -24.552559 19.575123 -9.047905 145.230863 52.469320 -12.775585 25.191957 -62.985782 115.152631 -123.163936 59.531606 55.684357 0.000000 0.000000 0.000000 0.000000 0.000000 0.000000 0.721648 -9.661265 -2.191238 2.879583 6.240886 2.102818 21.417527 15.011606 -9.841404 -36.571472 31.298983 11.560525 0.000000 0.000000 0.000000 0.000000 0.000000 0.000000 3.498344 -0.418435 0.654084 -1.236462 -6.108733 0.781543 2.713737 9.015075 -7.134599 0.000000 0.000000 0.000000 2.842647 -3.640599 1.336505 -0.000000 0.000000 0.000000 0.458597 0.983776 -1.903007 0.000000 0.000000 0.000000
69.162516 59.700765 381.663867 -4.497406 4.830852 0.867510 -1.927062 1.254617 -0.827220 0.584653 0.042984 -0.143414 -17.940454 4.023726 -5.468481 0.000000 0.000000 0.000000 -38.658577 35.377749 -9.333295 138.862456 10.582957 39.001609 -19.002161 -5.285967 34.057028 -5.278580 27.288706 -20.983305 0.000000 0.000000 0.000000 0.000000 0.000000 0.000000 2.329126 -11.078974 -2.082157 3.003750 6.178367 2.129430 26.505085 -3.714077 -11.019795 -64.900203 51.326438 36.293862 0.000000 0.000000 0.000000 0.000000 0.000000 0.000000 5.432052 -1.467367 -1.195096 -1.772286 -6.533965 0.765666 2.966369 8.283758 -7.261858 0.000000 0.000000 0.000000 4.717677 -5.791440 -0.670602 -1.360081 1.196564 -0.031279 1.602055 0.885776 -1.933934 0.000000 0.000000 0.000000
69.389510 59.764625 381.105883 -6.405107 6.256874 2.627676 -2.096100 1.615604 -2.464724 1.079736 -0.139318 -0.154568 -19.926917 4.840089 -6.429088 0.000000 0.000000 0.000000 -51.683213 46.125755 -6.326606 149.319734 0.951268 50.528501 -8.999269 12.965448 25.874059 31.561930 7.972018 -9.959050 0.000000 0.000000 0.000000 0.000000 0.000000 0.000000 3.918501 -12.529645 -1.912286 3.069887 6.097496 2.136363 29.846328 -16.002311 -10.922886 -71.349551 48.328147 42.899204 0.000000 0.000000 0.000000 0.000000 0.000000 0.000000 7.441402 -3.437608 -2.520671 -2.337210 -6.299300 0.634679 2.955406 6.852498 -6.479954 0.000000 0.000000 0.000000 6.052371 -8.000163 -2.330248 -1.428052 1.668837 0.035887 2.050055 1.231099 -2.018237 0.000000 0.000000 0.000000
69.638215 59.760034 380.425136 -8.821371 8.012059 3.424948 -2.346621 1.963669 -3.040809 1.333352 -0.202851 -0.199727 -20.082594 6.213399 -7.147013 0.000000 0.000000 0.000000 -59.356602 50.919884 -3.920754 155.254985 -3.380301 54.348034 -2.252142 11.769829 22.943773 48.268721 10.004103 -8.330851 0.000000 0.000000 0.000000 0.000000 0.000000 0.000000 6.430518 -14.449726 -1.536963 3.059477 6.031277 2.128435 32.389639 -22.236153 -10.775020 -82.266658 48.940126 52.193930 0.000000 0.000000 0.000000 0.000000 0.000000 0.000000 9.766538 -6.368543 -2.509366 -2.740558 -5.493123 0.402343 2.997958 5.044031 -6.189656 0.000000 0.000000 0.000000 8.129273 -10.523948 -2.792348 -1.672418 1.834885 0.039614 2.686050 1.803624 -2.888385 0.000000 0.000000 0.000000
69.853156 59.778992 379.755718 -11.529629 9.860587 1.559134 -2.624882 2.122378 -0.844467 1.255589 -0.158961 -0.291889 -18.760704 8.170037 -7.479039 0.000000 0.000000 0.000000 -61.389163 51.847093 -4.037772 155.339817 -8.517847 55.949477 3.989922 21.094124 17.712263 51.506461 6.040264 2.171077 0.000000 0.000000 0.000000 0.000000 0.000000 0.000000 9.667030 -16.591051 -0.921625 2.919298 6.069809 2.106302 36.942899 -38.124507 -8.443962 -103.634513 47.645187 73.000897 0.000000 0.000000 0.000000 0.000000 0.000000 0.000000 12.770617 -9.480106 0.507669 -3.118604 -3.595025 0.049522 3.018120 2.636164 -5.870048 0.000000 0.000000 0.000000 11.657009 -11.709986 0.051594 -2.646771 0.762034 -0.379251 3.609300 2.591809 -4.190544 0.000000 0.000000 0.000000
70.158509 59.724876 379.026655 -14.358839 11.806524 3.621792 -2.504471 2.268802 -2.454414 1.066484 -0.082049 -0.395934 -17.475608 10.208967 -7.698365 0.000000 0.000000 0.000000 -58.225521 49.433353 -7.143084 172.744890 -8.690712 53.228070 1.281510 31.756807 18.588710 41.041097 7.794264 -5.145792 0.000000 0.000000 0.000000 0.000000 0.000000 0.000000 12.862056 -18.702378 -0.212726 2.631917 6.802535 2.142858 38.160215 -40.335282 -7.575045 -106.156635 46.893175 75.251877 0.000000 0.000000 0.000000 0.000000 0.000000 0.000000 15.023440 -13.130599 -0.254625 -2.988542 -1.915337 -0.217352 2.813016 0.207487 -5.228955 0.000000 0.000000 0.000000 14.261279 -15.025935 -1.199824 -3.032896 0.673812 -0.352390 4.207914 3.670267 -5.699956 0.000000 0.000000 0.000000
70.486161 59.636440 378.313435 -16.753004 13.611141 3.448592 -2.255322 2.029850 -1.810016 0.734637 0.026253 -0.506080 -17.164667 13.092403 -7.764445 0.000000 0.000000 0.000000 -50.924009 43.588535 -11.792069 -124.847175 -0.520330 33.544555 -35.073313 43.117154 44.150682 20.041384 35.870768 -34.215660 0.000000 0.000000 0.000000 0.000000 0.000000 0.000000 15.334398 -20.325426 0.377658 2.707115 6.753699 2.169212 36.198808 -34.026588 -8.955374 -97.486166 47.789926 66.665259 0.000000 0.000000 0.000000 0.000000 0.000000 0.000000 17.075086 -15.651177 1.084631 -2.766580 -0.475583 -0.459926 4.244019 5.975093 -7.746513 0.000000 0.000000 0.000000 16.999285 -17.199419 -0.018436 -3.317259 0.107700 -0.441726 4.654136 4.713314 -7.061112 0.000000 0.000000 0.000000
70.859359 59.506183 377.659839 -18.302189 15.084723 2.410957 -1.848282 1.518606 -0.394500 0.236587 0.154601 -0.619416 -18.579905 16.613788 -7.779861 0.000000 0.000000 0.000000 -49.334674 42.090939 -13.233942 -90.265759 -5.143709 24.377614 -41.133567 37.089455 62.071283 46.364835 63.197917 -83.418919 0.000000 0.000000 0.000000 0.000000 0.000000 0.000000 16.741663 -21.385478 0.690089 3.157445 5.813278 2.180661 34.924644 -32.832636 -9.543020 -96.698562 48.158263 66.403632 0.000000 0.000000 0.000000 0.000000 0.000000 0.000000 18.534825 -17.565358 3.060345 -2.672626 0.716925 -0.713419 4.777941 3.332637 -9.189450 0.000000 0.000000 0.000000 19.190034 -18.446048 1.914764 -3.737801 -0.595456 -0.626167 5.151996 5.584197 -8.062426 0.000000 0.000000 0.000000
